<svg width="141" height="36" viewBox="0 0 141 36" fill="none" xmlns="http://www.w3.org/2000/svg">
<path fill-rule="evenodd" clip-rule="evenodd" d="M56.2765 28.9163V21.0358H62.7105V30.3856C62.7105 31.0729 62.5751 31.7535 62.3121 32.3885C62.049 33.0235 61.6635 33.6005 61.1775 34.0865C60.6915 34.5725 60.1145 34.958 59.4795 35.221C58.8445 35.4841 58.1639 35.6194 57.4766 35.6194H50.4084C49.7209 35.62 49.04 35.4851 48.4048 35.2223C47.7695 34.9594 47.1923 34.5739 46.7062 34.0878C46.22 33.6017 45.8345 33.0245 45.5717 32.3892C45.3089 31.7539 45.1739 31.0731 45.1745 30.3856V5.20648C45.1733 3.83 45.7177 2.50915 46.6885 1.53327C47.6592 0.557384 48.9772 0.00603666 50.3536 0H57.4492C58.8326 0.00723649 60.1568 0.561852 61.1324 1.54261C62.1081 2.52336 62.6557 3.85048 62.6557 5.23386V14.6338H56.2674V6.75793H51.5629V28.9163H56.2765ZM86.7762 35.3092L78.6265 17.828L86.7762 0.351358H79.8722L71.8595 17.5344V0.351357H65.4118V35.3091H71.8595V18.1216L79.8722 35.3092H86.7762ZM103.322 0.351358V6.74424H95.3548V14.6338H103.322V21.0221H95.3548V28.9163H103.322V35.3092H88.9117H88.9071L88.9117 0.351358H103.322ZM136.762 32.555C136.567 32.8462 136.464 33.1885 136.464 33.5387C136.455 33.7734 136.495 34.0073 136.581 34.2259C136.668 34.4444 136.798 34.6429 136.964 34.809C137.13 34.9751 137.328 35.1052 137.547 35.1913C137.765 35.2773 137.999 35.3174 138.234 35.3092C138.584 35.3092 138.927 35.2053 139.218 35.0108C139.509 34.8162 139.736 34.5397 139.87 34.2162C140.004 33.8927 140.039 33.5367 139.971 33.1933C139.902 32.8498 139.734 32.5344 139.486 32.2868C139.238 32.0392 138.923 31.8705 138.579 31.8022C138.236 31.7339 137.88 31.769 137.557 31.903C137.233 32.037 136.957 32.2639 136.762 32.555ZM139.391 32.7781C139.541 33.0033 139.621 33.2679 139.621 33.5387H139.63C139.63 33.7192 139.595 33.898 139.525 34.0647C139.456 34.2313 139.354 34.3827 139.226 34.5099C139.098 34.6371 138.946 34.7378 138.779 34.806C138.612 34.8743 138.433 34.9088 138.252 34.9076C137.982 34.9076 137.717 34.8273 137.492 34.6769C137.267 34.5265 137.091 34.3127 136.988 34.0625C136.884 33.8124 136.857 33.5372 136.91 33.2716C136.963 33.0061 137.093 32.7621 137.284 32.5707C137.476 32.3792 137.72 32.2489 137.985 32.1961C138.251 32.1432 138.526 32.1703 138.776 32.274C139.026 32.3776 139.24 32.553 139.391 32.7781ZM137.477 32.658V34.3965H137.846V33.8307H138.69V34.3965H139.06V33.8809C139.063 33.8562 139.06 33.8312 139.052 33.8077C139.044 33.7842 139.031 33.7629 139.013 33.7453C138.995 33.7278 138.974 33.7144 138.951 33.7063C138.927 33.6982 138.902 33.6954 138.877 33.6984H138.567V33.5524C138.873 33.525 139.06 33.452 139.06 33.1599C139.06 32.7538 138.613 32.658 138.198 32.658H137.477ZM138.198 33.4839H137.846V33.055H138.198L138.233 33.055C138.518 33.0546 138.69 33.0544 138.69 33.2649C138.69 33.4839 138.503 33.4839 138.198 33.4839ZM122.888 0.351358H106V6.74424H110.363V35.3092H116.81V6.74424H120.461L122.888 0.351358ZM125.585 0.351358H140V6.7488H134.994V35.3092H128.547V6.7488H123.158L125.585 0.351358ZM42.423 0.351358V6.74424H34.4559V14.6338H42.423V21.0358H34.4559V28.9163H42.423V35.3092H28.0173H28.0128L28.0173 0.351358H42.423ZM4.99201 17.5907H0L3.85124 20.6023L1.83892 25.9092L6.89482 22.6283V35.3183H20.1825C21.5352 35.3147 22.8314 34.7754 23.7875 33.8185C24.7435 32.8615 25.2816 31.5649 25.284 30.2122V22.2268C25.2844 21.2413 24.9686 20.2816 24.3829 19.489C23.7973 18.6963 22.9727 18.1125 22.0306 17.8234C22.9727 17.5343 23.7973 16.9505 24.3829 16.1579C24.9686 15.3652 25.2844 14.4056 25.284 13.42V5.32968C25.2745 4.00952 24.7452 2.74629 23.8108 1.81362C22.8764 0.880956 21.6122 0.353961 20.292 0.346794L6.89482 0.333105V12.5804L4.99201 17.5907ZM6.89482 12.5804V22.6283L11.9462 25.9183L9.93384 20.6115L13.7851 17.5998H8.79306L6.89482 12.5804ZM19.3431 27.766C19.4635 27.4753 19.5254 27.1638 19.5254 26.8492V23.0983C19.5254 22.7837 19.4635 22.4722 19.3431 22.1816C19.2227 21.8909 19.0462 21.6268 18.8238 21.4044C18.6013 21.1819 18.3372 21.0055 18.0466 20.8851C17.7559 20.7647 17.4444 20.7027 17.1298 20.7027H13.3242V29.2448H17.1298C17.4444 29.2448 17.7559 29.1828 18.0466 29.0625C18.3372 28.9421 18.6013 28.7656 18.8238 28.5432C19.0462 28.3207 19.2227 28.0566 19.3431 27.766ZM19.3431 13.1641C19.4635 12.8734 19.5254 12.5619 19.5254 12.2473V8.82501C19.5254 8.51041 19.4635 8.19889 19.3431 7.90824C19.2227 7.61759 19.0462 7.3535 18.8238 7.13105C18.6013 6.90859 18.3372 6.73213 18.0466 6.61174C17.7559 6.49135 17.4444 6.42939 17.1298 6.42939H13.3242V14.6429H17.1298C17.4444 14.6429 17.7559 14.581 18.0466 14.4606C18.3372 14.3402 18.6013 14.1637 18.8238 13.9413C19.0462 13.7188 19.2227 13.4547 19.3431 13.1641Z" fill="url(#paint0_linear_62_67)"/>
<defs>
<linearGradient id="paint0_linear_62_67" x1="4.84123e-06" y1="-33.7447" x2="149.705" y2="32.1722" gradientUnits="userSpaceOnUse">
<stop stop-color="#1C1C1C"/>
<stop offset="0.515193" stop-color="white"/>
<stop offset="1" stop-color="#303030"/>
</linearGradient>
</defs>
</svg>
